<svg width="16" height="16" viewBox="0 0 16 16" fill="none" xmlns="http://www.w3.org/2000/svg">
<g id="Arrrow">
<path id="Rectangle 2" d="M6 0.5C6 0.223858 6.22386 0 6.5 0H8.5C8.77614 0 9 0.223858 9 0.5V13.75C9 14.4404 8.44036 15 7.75 15H7.4C6.6268 15 6 14.3732 6 13.6V0.5Z" fill="#121420"/>
<g id="Group 1">
<path id="Rectangle 3" d="M0.353553 8.47489C0.158291 8.27963 0.158291 7.96305 0.353553 7.76778L1.76777 6.35357C1.96303 6.15831 2.27961 6.15831 2.47487 6.35357L8.48528 12.364C8.87581 12.7545 8.87581 13.3877 8.48528 13.7782L7.77817 14.4853C7.38765 14.8758 6.75449 14.8758 6.36396 14.4853L0.353553 8.47489Z" fill="#121420"/>
<path id="Rectangle 4" d="M14.8388 8.47489C15.0341 8.27963 15.0341 7.96305 14.8388 7.76778L13.4246 6.35357C13.2294 6.15831 12.9128 6.15831 12.7175 6.35357L6.7071 12.364C6.31658 12.7545 6.31658 13.3877 6.7071 13.7782L7.41421 14.4853C7.80473 14.8758 8.4379 14.8758 8.82842 14.4853L14.8388 8.47489Z" fill="#121420"/>
</g>
</g>
</svg>
